<svg version="1.0" xmlns="http://www.w3.org/2000/svg" width="100" height="100" xml:space="preserve"><path d="M84.743 53.73 69.98 57.683l-4.238-2.441c.554-1.66.925-3.398.925-5.241 0-1.842-.371-3.584-.925-5.24l4.238-2.448 14.763 3.958 1.725-6.438-8.323-2.233 8.164-4.713-3.333-5.775-8.164 4.714 2.229-8.32-6.438-1.726-3.955 14.76-4.232 2.444c-2.35-2.646-5.481-4.58-9.082-5.315v-4.812l10.808-10.808-4.714-4.713-6.094 6.094V10h-6.666v9.428l-6.094-6.094-4.714 4.713 10.808 10.808v4.812c-3.601.735-6.732 2.669-9.082 5.313l-4.232-2.441-3.955-14.76-6.438 1.726 2.229 8.32-8.164-4.714-3.333 5.775 8.164 4.713-8.323 2.233 1.725 6.438 14.763-3.958 4.238 2.448c-.554 1.653-.925 3.398-.925 5.24 0 1.843.371 3.581.925 5.241l-4.238 2.441-14.765-3.952-1.725 6.438 8.323 2.227-8.164 4.714 3.333 5.774 8.164-4.713-2.229 8.326 6.438 1.726 3.955-14.766 4.232-2.441c2.35 2.649 5.481 4.583 9.082 5.313v4.817L35.859 81.953l4.714 4.714 6.094-6.094V90h6.666v-9.427l6.094 6.094 4.714-4.714-10.808-10.807v-4.817c3.601-.729 6.732-2.663 9.082-5.313l4.232 2.441 3.955 14.766 6.438-1.726-2.229-8.32 8.16 4.707 3.337-5.774-8.164-4.714 8.323-2.227-1.724-6.439zM50 60c-5.524 0-10-4.479-10-10 0-5.523 4.476-10 10-10 5.521 0 10 4.477 10 10 0 5.521-4.479 10-10 10z"/></svg>