<?xml version="1.0" encoding="utf-8"?>
<!-- Generator: Adobe Illustrator 23.0.3, SVG Export Plug-In . SVG Version: 6.00 Build 0)  -->
<svg version="1.1" id="Layer_1" xmlns="http://www.w3.org/2000/svg" xmlns:xlink="http://www.w3.org/1999/xlink" x="0px" y="0px"
	 viewBox="0 0 1920 1080" style="enable-background:new 0 0 1920 1080;" xml:space="preserve">
<style type="text/css">
	.st0{fill:url(#SVGID_1_);}
	.st1{fill:#F2F2F2;}
	.st2{fill:#666666;}
	.st3{fill:#FFFFFF;fill-opacity:0.59;}
	.st4{fill:#333333;}
	.st5{opacity:0.5;filter:url(#AI_GaussianBlur_4);}
	.st6{fill:#6E2A00;}
	.st7{opacity:0.7;}
	.st8{fill:#FCEFE3;enable-background:new    ;}
	.st9{opacity:0.7;filter:url(#AI_GaussianBlur_4);enable-background:new    ;}
	.st10{fill:#FCEFE3;}
	.st11{fill:#FFFFFF;fill-opacity:0.7;}
	.st12{filter:url(#AI_GaussianBlur_7);}
	.st13{fill:#FF7D2C;}
	.st14{fill:#FFFFFF;}
	.st15{fill:#660000;}
	.st16{fill:#4D4D4D;}
	.st17{opacity:0.3;fill:#351F08;enable-background:new    ;}
	.st18{fill:#808080;}
	.st19{fill:#C1272D;}
	.st20{fill:#1A1A1A;}
	.st21{fill:#B3B3B3;}
	.st22{fill:#FF0000;}
	.st23{opacity:0.2;enable-background:new    ;}
	.st24{opacity:0.8;}
	.st25{fill:none;stroke:#FFFFFF;stroke-width:2;stroke-miterlimit:10;}
	.st26{fill:none;stroke:#FFFFFF;stroke-width:2;stroke-miterlimit:10;stroke-dasharray:47.9932,143.9795;}
	.st27{fill:#575757;}
	.st28{fill:#404040;}
	.st29{fill:#525252;}
	.st30{fill:#EF3061;}
	.st31{fill:#FF8C00;}
	.st32{fill:#FFBB00;}
	.st33{fill:url(#SVGID_2_);}
	.st34{fill:#4F4F4F;}
	.st35{fill:#EFEFEF;}
	.st36{fill:#E02B61;}
	.st37{fill:#FFCB3D;}
</style>
<filter  id="AI_GaussianBlur_7">
	<feGaussianBlur  stdDeviation="7"></feGaussianBlur>
</filter>
<filter  id="AI_GaussianBlur_4">
	<feGaussianBlur  stdDeviation="4"></feGaussianBlur>
</filter>
<g id="Extra">
</g>
<g id="Scene">
	
		<linearGradient id="SVGID_1_" gradientUnits="userSpaceOnUse" x1="960" y1="-268" x2="960" y2="-980" gradientTransform="matrix(1 0 0 1 0 980)">
		<stop  offset="0" style="stop-color:#FAC620"/>
		<stop  offset="1" style="stop-color:#F79325"/>
	</linearGradient>
	<rect class="st0" width="1920" height="712"/>
	<circle class="st1" cx="1673.3" cy="711.7" r="323.9"/>
	<g>
		<rect y="712" class="st2" width="1920" height="368"/>
	</g>
	<path class="st3" d="M1445.2,272c0,0-353.6-2.5-361.8-0.5c-8.2,2-1.5,11.8,120,11.5s-55.1,4-76.2,10.6c-25,7.7,249.8,6.4,313.7-3.6
		C1501.1,280.6,1461.1,272.1,1445.2,272z"/>
	<path class="st3" d="M580.9,306.5c0,0,261.3-13.2,196.4,0s60.7,4.6,76.1,9.5s-280.2,5.9-283,0C567.6,310,580.9,306.5,580.9,306.5z"
		/>
	<g>
		<g>
			<path d="M1345.1,869.6c0,3.8,3.1,6.8,6.8,6.8h6.5c3.8,0,6.8-3,6.8-6.8s-3.1-6.8-6.8-6.8h-6.5
				C1348.2,862.8,1345.1,865.8,1345.1,869.6C1345.1,869.6,1345.1,865.8,1345.1,869.6z"/>
		</g>
		<g>
			<path class="st4" d="M1333.1,869.6c0,3.6,2.9,6.5,6.5,6.5h13.8c3.6,0,6.5-2.9,6.5-6.5s-2.9-6.5-6.5-6.5h-13.8
				C1336,863.1,1333.1,866,1333.1,869.6C1333.1,869.6,1333.1,866,1333.1,869.6z"/>
		</g>
	</g>
	<g>
		<g>
			<path d="M1335.3,874.6c0,2.6,2.1,4.7,4.7,4.7h4.4c2.6,0,4.7-2.1,4.7-4.7s-2.1-4.7-4.7-4.7h-4.4
				C1337.4,870,1335.3,872,1335.3,874.6C1335.3,874.6,1335.3,872,1335.3,874.6z"/>
		</g>
		<g>
			<path class="st4" d="M1327,874.6c0,2.5,2,4.5,4.5,4.5h9.5c2.5,0,4.5-2,4.5-4.5s-2-4.5-4.5-4.5h-9.5
				C1329,870.2,1327,872.2,1327,874.6C1327,874.6,1327,872.2,1327,874.6z"/>
		</g>
	</g>
	<g>
		<g>
			<path d="M336,833c0,3.8,3,6.8,6.8,6.8h6.5c3.8,0,6.8-3,6.8-6.8s-3-6.8-6.8-6.8h-6.5C339,826.2,336,829.2,336,833
				C336,833,336,829.2,336,833z"/>
		</g>
		<g>
			<path class="st4" d="M324,833c0,3.6,2.9,6.5,6.5,6.5h13.8c3.6,0,6.5-2.9,6.5-6.5s-2.9-6.5-6.5-6.5h-13.8
				C326.9,826.5,324,829.4,324,833C324,833,324,829.4,324,833z"/>
		</g>
	</g>
	<g>
		<g>
			<path d="M333.2,842c0,2.6,2.1,4.7,4.7,4.7h4.5c2.6,0,4.7-2.1,4.7-4.7s-2.1-4.7-4.7-4.7h-4.5C335.3,837.3,333.2,839.4,333.2,842
				C333.2,842,333.2,839.4,333.2,842z"/>
		</g>
		<g>
			<path class="st4" d="M325,842c0,2.5,2,4.5,4.5,4.5h9.5c2.5,0,4.5-2,4.5-4.5s-2-4.5-4.5-4.5h-9.5C327,837.5,325,839.5,325,842
				C325,842,325,839.5,325,842z"/>
		</g>
	</g>
	<g>
		<g>
			<path d="M684.2,769.5c0,2.8,2.3,5.1,5.1,5.1h4.9c2.8,0,5.1-2.3,5.1-5.1s-2.3-5.1-5.1-5.1h-4.9
				C686.5,764.3,684.2,766.6,684.2,769.5C684.2,769.5,684.2,766.6,684.2,769.5z"/>
		</g>
		<g>
			<path class="st4" d="M688.2,769.4c0,2.7,2.2,4.9,4.9,4.9h10.4c2.7,0,4.9-2.2,4.9-4.9s-2.2-4.9-4.9-4.9h-10.4
				C690.4,764.5,688.2,766.7,688.2,769.4C688.2,769.4,688.2,766.7,688.2,769.4z"/>
		</g>
	</g>
	<g>
		<g>
			<path d="M696.3,773.2c0,2,1.6,3.5,3.5,3.5h3.4c2,0,3.5-1.6,3.5-3.5s-1.6-3.5-3.5-3.5h-3.4C697.9,769.7,696.3,771.3,696.3,773.2
				C696.3,773.2,696.3,771.3,696.3,773.2z"/>
		</g>
		<g>
			<path class="st4" d="M699.1,773.2c0,1.9,1.5,3.4,3.4,3.4h7.2c1.9,0,3.4-1.5,3.4-3.4s-1.5-3.4-3.4-3.4h-7.2
				C700.6,769.9,699.1,771.4,699.1,773.2C699.1,773.2,699.1,771.4,699.1,773.2z"/>
		</g>
	</g>
	<g>
		<g>
			<path d="M831.5,875.2c0,2.8,2.3,5.1,5.1,5.1h4.9c2.8,0,5.1-2.3,5.1-5.1s-2.3-5.1-5.1-5.1h-4.9C833.8,870,831.5,872.3,831.5,875.2
				C831.5,875.2,831.5,872.3,831.5,875.2z"/>
		</g>
		<g>
			<path class="st4" d="M822.4,875.2c0,2.7,2.2,4.9,4.9,4.9h10.4c2.7,0,4.9-2.2,4.9-4.9s-2.2-4.9-4.9-4.9h-10.4
				C824.6,870.3,822.4,872.5,822.4,875.2C822.4,875.2,822.4,872.5,822.4,875.2z"/>
		</g>
	</g>
	<g>
		<g>
			<path d="M824.1,878.4c0,2,1.6,3.5,3.5,3.5h3.4c2,0,3.5-1.6,3.5-3.5s-1.6-3.5-3.5-3.5h-3.4C825.7,874.9,824.1,876.4,824.1,878.4
				C824.1,878.4,824.1,876.4,824.1,878.4z"/>
		</g>
		<g>
			<path class="st4" d="M817.9,878.4c0,1.9,1.5,3.4,3.4,3.4h7.2c1.9,0,3.4-1.5,3.4-3.4s-1.5-3.4-3.4-3.4h-7.2
				C819.4,875,817.9,876.5,817.9,878.4C817.9,878.4,817.9,876.5,817.9,878.4z"/>
		</g>
	</g>
	<g>
		<g>
			<path d="M455.7,807c0,2,1.6,3.5,3.5,3.5h3.4c2,0,3.5-1.6,3.5-3.5s-1.6-3.5-3.5-3.5h-3.4C457.3,803.5,455.7,805,455.7,807
				C455.7,807,455.7,805,455.7,807z"/>
		</g>
		<g>
			<path class="st4" d="M449.5,807c0,1.9,1.5,3.4,3.4,3.4h7.1c1.9,0,3.4-1.5,3.4-3.4s-1.5-3.4-3.4-3.4h-7.1
				C451,803.6,449.5,805.2,449.5,807C449.5,807,449.5,805.2,449.5,807z"/>
		</g>
	</g>
	<g>
		<g>
			<path d="M777.3,919.2c0,2,1.6,3.5,3.5,3.5h3.4c2,0,3.5-1.6,3.5-3.5s-1.6-3.5-3.5-3.5h-3.4C778.9,915.7,777.3,917.3,777.3,919.2
				C777.3,919.2,777.3,917.3,777.3,919.2z"/>
		</g>
		<g>
			<path class="st4" d="M780.1,919.2c0,1.9,1.5,3.4,3.4,3.4h7.2c1.9,0,3.4-1.5,3.4-3.4s-1.5-3.4-3.4-3.4h-7.2
				C781.6,915.8,780.1,917.3,780.1,919.2C780.1,919.2,780.1,917.3,780.1,919.2z"/>
		</g>
	</g>
	<g>
		<g>
			<path d="M1088.2,855.9c0,1.6,1.3,2.9,2.9,2.9h2.8c1.6,0,2.9-1.3,2.9-2.9c0-1.6-1.3-2.9-2.9-2.9h-2.8
				C1089.5,853,1088.2,854.3,1088.2,855.9C1088.2,855.9,1088.2,854.3,1088.2,855.9z"/>
		</g>
		<g>
			<path class="st4" d="M1090.5,855.9c0,1.5,1.2,2.8,2.8,2.8h6c1.6,0,2.8-1.2,2.8-2.8s-1.2-2.8-2.8-2.8h-6
				C1091.8,853.1,1090.5,854.4,1090.5,855.9C1090.5,855.9,1090.5,854.4,1090.5,855.9z"/>
		</g>
	</g>
	<g>
		<g>
			<path d="M1160.4,921.7c0,1.3,1.1,2.4,2.4,2.4h2.3c1.3,0,2.4-1.1,2.4-2.4c0-1.3-1.1-2.4-2.4-2.4h-2.3
				C1161.5,919.3,1160.4,920.4,1160.4,921.7C1160.4,921.7,1160.4,920.4,1160.4,921.7z"/>
		</g>
		<g>
			<path class="st4" d="M1162.3,921.7c0,1.3,1,2.3,2.3,2.3h4.8c1.3,0,2.3-1,2.3-2.3s-1-2.3-2.3-2.3h-4.8
				C1163.3,919.4,1162.3,920.5,1162.3,921.7C1162.3,921.7,1162.3,920.5,1162.3,921.7z"/>
		</g>
	</g>
	<g>
		<g>
			<path d="M288.9,833c0,1.3,1.1,2.4,2.4,2.4h2.3c1.3,0,2.4-1.1,2.4-2.4c0-1.3-1.1-2.4-2.4-2.4h-2.3
				C290,830.6,288.9,831.7,288.9,833C288.9,833,288.9,831.7,288.9,833z"/>
		</g>
		<g>
			<path class="st4" d="M290.8,833c0,1.3,1,2.3,2.3,2.3h4.9c1.3,0,2.3-1,2.3-2.3s-1-2.3-2.3-2.3h-4.9
				C291.8,830.7,290.8,831.7,290.8,833C290.8,833,290.8,831.7,290.8,833z"/>
		</g>
	</g>
	<g>
		<g>
			<path d="M1363.2,762.5c0,1.3,1.1,2.4,2.4,2.4h2.3c1.3,0,2.4-1.1,2.4-2.4s-1.1-2.4-2.4-2.4h-2.3
				C1364.2,760.1,1363.2,761.2,1363.2,762.5C1363.2,762.5,1363.2,761.2,1363.2,762.5z"/>
		</g>
		<g>
			<path class="st4" d="M1358.9,762.5c0,1.3,1,2.3,2.3,2.3h4.8c1.3,0,2.3-1,2.3-2.3s-1-2.3-2.3-2.3h-4.8
				C1359.9,760.2,1358.9,761.2,1358.9,762.5C1358.9,762.5,1358.9,761.2,1358.9,762.5z"/>
		</g>
	</g>
	<g>
		<g>
			<path d="M1668.1,826.2c0,2.8,2.3,5.1,5.1,5.1h4.9c2.8,0,5.1-2.3,5.1-5.1s-2.3-5.1-5.1-5.1h-4.9
				C1670.4,821,1668.1,823.3,1668.1,826.2C1668.1,826.2,1668.1,823.3,1668.1,826.2z"/>
		</g>
		<g>
			<path class="st4" d="M1672.1,826.1c0,2.7,2.2,4.9,4.9,4.9h10.4c2.7,0,4.9-2.2,4.9-4.9s-2.2-4.9-4.9-4.9H1677
				C1674.3,821.2,1672.1,823.4,1672.1,826.1C1672.1,826.1,1672.1,823.4,1672.1,826.1z"/>
		</g>
	</g>
	<g>
		<g>
			<path d="M1680.2,830c0,2,1.6,3.5,3.5,3.5h3.4c1.9,0,3.5-1.6,3.5-3.5s-1.6-3.5-3.5-3.5h-3.4C1681.8,826.4,1680.2,828,1680.2,830
				C1680.2,830,1680.2,828,1680.2,830z"/>
		</g>
		<g>
			<path class="st4" d="M1683,829.9c0,1.9,1.5,3.4,3.4,3.4h7.2c1.9,0,3.4-1.5,3.4-3.4s-1.5-3.4-3.4-3.4h-7.2
				C1684.5,826.6,1683,828.1,1683,829.9C1683,829.9,1683,828.1,1683,829.9z"/>
		</g>
	</g>
</g>
<g id="Mountains">
	<g>
		<polygon points="-12.2,712 339,523 639.1,712 		"/>
		<polygon points="457.8,712 642.3,565 800,712 		"/>
	</g>
	<g>
		<polygon points="-12.2,712 339,523 639.1,712 		"/>
		<polygon points="457.8,712 642.3,565 800,712 		"/>
	</g>
	<g class="st5">
		<polygon points="809.1,710.4 648.2,710.4 466.9,710.4 -3.1,710.4 -140.6,851.6 382.1,758.1 271.3,820.2 		"/>
	</g>
	<g>
		<polygon points="1398.8,712 1669.1,601 1900,712 		"/>
		<polygon points="1542,712 1745.8,574 1920,712 		"/>
	</g>
	<g class="st5">
		<polygon points="1743.7,751.5 1695.6,738.9 1676.9,742.4 1441.5,705 1566.2,705 1878,705 1895.4,705 		"/>
	</g>
</g>
<g id="Building">
	<rect x="700.9" y="707" class="st6" width="371.6" height="11"/>
	<rect x="900.3" y="710.4" width="32.2" height="7.6"/>
	<g id="Man">
		<path d="M885.6,688c0,0-0.4-4.5-1.6-7.2c-1.2-2.7-0.4-8.5,6.4-8.9c6.9-0.3,6.9,4.9,6.9,4.9l-0.5,0.1c0,0,1.1,2.7,1.1,3.9
			c0,1.2-0.3,0.9,0.3,1.9s0.4,2.2-0.6,2.1l-0.1,1.1l0,0.6l-0.8,0.5c0,0,0.8,2-0.5,2s-2.2,0.3-2.2,0.3l-0.6,2.2c0,0,3.9,3.6,3.8,6.9
			c-0.1,3.4,0,10.3,0,10.3l-0.5,13.6h-17.5c0,0-0.4-21,0.3-23.6C879.9,696.3,885.4,691,885.6,688z"/>
	</g>
	<g class="st7">
		<rect x="828.9" y="659" class="st8" width="114" height="59"/>
		<g class="st9">
			<rect x="828.4" y="659" class="st10" width="114" height="59"/>
		</g>
		<polygon class="st11" points="883.9,661 886.9,661 876.9,716 873.9,716 		"/>
		<polygon class="st11" points="888.9,661 891.9,661 881.9,716 878.9,716 		"/>
		<polygon class="st11" points="893.9,661 896.9,661 886.9,716 883.9,716 		"/>
	</g>
	<g>
		<rect x="693.9" y="566.8" width="300.2" height="2.7"/>
		<rect x="991.5" y="566.8" width="3.6" height="79.5"/>
		<rect x="693.9" y="566.8" width="3.6" height="79.5"/>
		<g class="st12">
			<path class="st13" d="M737.6,565.2l-13.9,0l0,7.6l3.2,0c-0.7,0.9-1.6,1.6-2.6,2.1s-2.1,0.8-3.4,0.8c-1,0-2-0.2-3-0.6
				s-1.7-0.9-2.4-1.6s-1.2-1.5-1.6-2.4c-0.4-0.9-0.6-2-0.6-3c0-1,0.2-2.1,0.5-3s0.9-1.7,1.5-2.4c0.6-0.7,1.4-1.2,2.2-1.6
				s1.8-0.6,2.9-0.6c0.9,0,1.9,0.2,2.9,0.5c1,0.3,1.8,0.8,2.4,1.3l6.5-9.3c-0.8-0.7-1.8-1.3-3-1.9c-1-0.5-2.2-0.9-3.7-1.3
				s-3.2-0.6-5.2-0.6c-2.6,0-5,0.5-7.3,1.5c-2.3,1-4.2,2.3-5.8,4.1c-1.6,1.8-2.9,3.7-3.9,6c-1,2.3-1.4,4.8-1.4,7.4
				c0,2.7,0.5,5.2,1.5,7.5c1,2.3,2.3,4.3,4.1,6c1.7,1.7,3.7,3,6,4c2.3,1,4.8,1.5,7.4,1.5c1.8,0,3.5-0.2,5.1-0.7
				c1.6-0.5,3.2-1.1,4.6-2c1.4-0.9,2.7-1.9,3.9-3.1c1.2-1.2,2.1-2.6,3-4L737.6,565.2L737.6,565.2z M732.7,575.6
				c-1.3,2-2.9,3.5-4.9,4.7c-2,1.2-4.3,1.8-6.8,1.8c-1.9,0-3.7-0.3-5.4-1c-1.7-0.7-3.1-1.6-4.4-2.8c-1.3-1.2-2.3-2.7-3-4.4
				s-1.1-3.6-1.1-5.6c0-2,0.4-3.9,1.1-5.6c0.7-1.7,1.7-3.1,2.9-4.4c1.2-1.2,2.7-2.2,4.3-2.8c1.6-0.6,3.5-1,5.4-1
				c0.8,0,1.6,0,2.3,0.2s1.3,0.2,1.8,0.4c0.6,0.1,1.1,0.3,1.6,0.5l-0.9,1.3c-0.4-0.1-0.9-0.3-1.4-0.4c-0.4-0.1-0.9-0.2-1.5-0.3
				s-1.2-0.2-1.8-0.2c-1.7,0-3.3,0.3-4.8,0.9c-1.5,0.6-2.8,1.4-3.9,2.5c-1.1,1.1-2,2.4-2.6,4c-0.6,1.5-1,3.2-1,5.1
				c0,1.9,0.3,3.5,1,5.1c0.6,1.5,1.5,2.9,2.7,4c1.2,1.1,2.5,1.9,4,2.5c1.5,0.6,3.1,0.9,4.8,0.9c2.2,0,4.1-0.5,5.9-1.5
				c1.8-1,3.2-2.3,4.4-4l0-5.4l-4.4,0l0-1.3l5.7,0L732.7,575.6z"/>
			<path class="st13" d="M745.9,577.8l16.9,0l-8.4-22.1L745.9,577.8z M751.9,575l2.4-6.3l2.4,6.3L751.9,575z"/>
			<path class="st13" d="M750,550.1l-13.6,36.1l11.4,0l1.2-3.2l10.9,0l1.2,3.2l11.4,0l-13.8-36.1L750,550.1z M764.3,581.7l-1-2.7
				l-17.9,0l-1,2.7l-1.5,0l10.3-27.4l2.1,0l10.5,27.4L764.3,581.7z"/>
			<path class="st13" d="M773,574.9L773,574.9L773,574.9L773,574.9z"/>
			<path class="st13" d="M793.3,568.2c-0.7-1-1.5-1.8-2.3-2.6c-0.9-0.8-1.6-1.4-2.3-2c-0.7-0.6-1.3-1.1-1.8-1.5s-0.7-0.8-0.7-1.1
				s0.1-0.6,0.3-0.8s0.5-0.3,0.8-0.4c0.3-0.1,0.6-0.1,0.9-0.1s0.6,0,0.8,0c0.4,0,0.8,0,1.1,0s0.7,0.1,1,0.1c0.4,0,0.7,0.1,1,0.1
				l0-10.1c-0.8-0.1-1.5-0.2-2.3-0.3c-0.7-0.1-1.5-0.1-2.3-0.2s-1.7-0.1-2.6-0.1c-1.7,0-3.2,0.2-4.7,0.7c-1.5,0.4-2.7,1.1-3.8,2
				c-1.1,0.9-1.9,2-2.5,3.2c-0.6,1.2-0.9,2.8-0.9,4.5c0,1.5,0.2,2.9,0.8,4c0.5,1.2,1.1,2.2,1.9,3.2c0.8,0.9,1.6,1.8,2.5,2.5
				c0.9,0.7,1.7,1.4,2.5,2s1.4,1.1,1.9,1.6c0.5,0.5,0.8,1,0.8,1.4c0,1.2-0.8,1.8-2.5,1.8c-0.9,0-1.9,0-2.8-0.2
				c-0.9-0.1-1.7-0.2-2.5-0.4c-0.9-0.1-1.7-0.3-2.5-0.6l0,10.8c0.9,0.2,1.8,0.5,2.9,0.7c0.9,0.2,1.9,0.3,3.1,0.5s2.4,0.2,3.8,0.2
				c2.3,0,4.2-0.3,5.9-0.9c1.7-0.6,3-1.4,4.1-2.4c1.1-1,1.8-2.2,2.3-3.6c0.5-1.4,0.8-2.9,0.8-4.5c0-1.5-0.2-2.9-0.7-4.1
				S794,569.1,793.3,568.2z M789.8,578.3c-0.5,0.8-1,1.5-1.8,2.1s-1.6,0.9-2.6,1.2s-1.9,0.3-3,0.3c-0.6,0-1.1,0-1.7-0.1
				c-0.6-0.1-1.1-0.1-1.6-0.2c-0.6-0.1-1.1-0.2-1.6-0.3l0,0l0-1.4c0.5,0.1,1,0.2,1.6,0.3c1,0.2,2.1,0.3,3.3,0.3
				c2.1,0,3.7-0.4,4.8-1.3c1.1-0.9,1.8-2.2,1.8-4c0-0.9-0.3-1.8-0.8-2.7c-0.5-0.9-1.2-1.7-2-2.5s-1.7-1.6-2.6-2.4
				c-0.9-0.8-1.8-1.6-2.6-2.5s-1.5-1.7-2-2.6c-0.5-0.9-0.8-1.8-0.8-2.8c0-1.9,0.6-3.3,1.9-4.1c1.3-0.9,2.9-1.3,4.8-1.3
				c0.3,0,0.6,0,1,0s0.6,0,0.8,0.1c0.3,0,0.6,0,0.8,0l0,1.4c-0.3,0-0.6,0-0.9,0c-0.3,0-0.6-0.1-0.9-0.1c-0.3,0-0.6,0-0.9,0
				c-1.8,0-3.2,0.3-4,1c-0.8,0.7-1.2,1.7-1.2,3c0,0.9,0.3,1.7,0.8,2.5c0.5,0.8,1.2,1.6,2,2.4s1.7,1.6,2.6,2.4
				c0.9,0.8,1.8,1.6,2.6,2.5c0.8,0.9,1.5,1.8,2,2.7s0.8,1.9,0.8,3C790.4,576.4,790.2,577.5,789.8,578.3z"/>
			<path class="st13" d="M834.7,570.9c-0.4,0.5-0.8,0.9-1.3,1.3l-4.9-4.1c1.4-1,2.6-2.2,3.5-3.6c1-1.4,1.5-3,1.5-4.8
				c0-1.5-0.3-3-0.8-4.3s-1.3-2.4-2.3-3.4c-1-1-2.3-1.7-3.7-2.2c-1.5-0.5-3-0.8-4.8-0.8c-1.6,0-3.1,0.3-4.4,0.8s-2.6,1.2-3.6,2.2
				c-1,0.9-1.8,2-2.4,3.3c-0.6,1.3-0.9,2.7-0.9,4.2c0,1.4,0.3,2.7,0.8,3.9s1.2,2.2,2.1,3.1c-1.6,1-2.9,2.3-3.9,3.8
				c-1,1.5-1.5,3.3-1.5,5.5c0,1.6,0.3,3,0.8,4.3c0.6,1.3,1.4,2.5,2.6,3.5c1.2,1,2.7,1.7,4.5,2.3c1.8,0.6,4,0.8,6.4,0.8
				c1.7,0,3.3-0.2,4.8-0.5c1.5-0.4,2.9-0.8,4.2-1.3c1.3-0.5,2.5-1.2,3.6-1.9s2.1-1.4,3-2.1c1-0.9,2-1.8,2.9-2.8s1.8-2,2.5-3.1
				l-7.2-6.2C835.7,569.8,835.1,570.5,834.7,570.9z M838.1,574.8c-1.3,1.5-2.7,2.8-4.3,3.9c-1.4,1-3,1.9-5,2.7
				c-1.9,0.8-4.2,1.2-6.7,1.2c-1.1,0-2.3-0.1-3.3-0.4c-1-0.3-2-0.7-2.9-1.3c-0.8-0.6-1.5-1.3-2-2.2s-0.8-2-0.8-3.1
				c0-0.9,0.2-1.7,0.5-2.5s0.7-1.4,1.2-2c0.5-0.6,1.1-1.1,1.8-1.6s1.5-0.9,2.2-1.3l1.3-0.7l-1.3-1.1c-1.2-1-2.2-2-2.9-3.1
				c-0.7-1-1.1-2.2-1.1-3.5c0-1,0.2-1.9,0.6-2.7c0.4-0.8,0.9-1.5,1.5-2c0.6-0.6,1.4-1,2.2-1.3s1.7-0.5,2.5-0.5c1,0,2,0.2,2.8,0.5
				s1.6,0.7,2.3,1.3c0.6,0.6,1.2,1.2,1.5,2c0.4,0.8,0.6,1.7,0.6,2.6c0,1.8-0.6,3.3-1.8,4.6c-1.2,1.3-2.8,2.4-4.8,3.5l8.3,6.9l-1,0.7
				l-8.4-7l-1.6,0.8c-1.6,0.8-2.9,1.7-3.8,2.6c-0.9,1-1.3,2.2-1.3,3.8c0,1.1,0.2,2,0.7,2.8s1.1,1.4,1.8,1.8s1.6,0.8,2.5,1
				s1.8,0.3,2.7,0.3c2.4,0,4.5-0.4,6.3-1.1s3.4-1.6,4.7-2.5c0.7-0.5,1.4-1.1,2.1-1.7c0.7-0.6,1.3-1.3,1.8-2L838.1,574.8z
				 M825.9,577.2c-0.5,0.2-1,0.3-1.6,0.4c-0.6,0.1-1.1,0.1-1.7,0.1c-0.9,0-1.7-0.2-2.3-0.6c-0.7-0.4-1-1-1-1.9s0.4-1.7,1.3-2.4
				L825.9,577.2z"/>
			<path class="st13" d="M826,563.7c1.1-1,1.6-2.4,1.6-4.1c0-0.8-0.2-1.6-0.5-2.2c-0.4-0.6-0.8-1.2-1.3-1.6c-0.5-0.4-1.2-0.8-1.9-1
				s-1.4-0.3-2.1-0.3c-1.6,0-2.9,0.5-4,1.5c-1.1,1-1.5,2.2-1.5,3.7c0,0.8,0.2,1.7,0.7,2.6c0.5,0.9,1.4,1.9,2.8,3.1l1.7,1.4
				C823.4,565.8,825,564.8,826,563.7z M820.3,560.8c-0.2-0.5-0.3-0.9-0.3-1.4c0-0.6,0.2-1.1,0.6-1.4c0.4-0.4,0.9-0.6,1.5-0.6
				c1.3,0,2,0.7,2,2c0,0.6-0.2,1.1-0.5,1.6c-0.4,0.5-1,0.9-1.8,1.4C821,561.8,820.6,561.3,820.3,560.8z"/>
			<path class="st13" d="M876.5,572.5l3.2,0c-0.7,0.9-1.6,1.6-2.6,2.1c-1,0.5-2.1,0.8-3.4,0.8c-1,0-2-0.2-3-0.6s-1.7-0.9-2.4-1.6
				c-0.7-0.7-1.2-1.5-1.6-2.4c-0.4-0.9-0.6-2-0.6-3c0-1,0.2-2.1,0.5-3s0.9-1.7,1.5-2.4s1.4-1.2,2.2-1.6c0.8-0.4,1.8-0.6,2.9-0.6
				c0.9,0,1.9,0.2,2.9,0.5c1,0.3,1.8,0.8,2.4,1.3l6.5-9.3c-0.8-0.7-1.8-1.3-3-1.9c-1-0.5-2.2-0.9-3.7-1.3s-3.2-0.6-5.2-0.6
				c-2.6,0-5,0.5-7.3,1.5c-2.3,1-4.2,2.3-5.8,4.1c-1.6,1.8-2.9,3.7-3.9,6c-1,2.3-1.4,4.8-1.4,7.4c0,2.7,0.5,5.2,1.5,7.5
				c1,2.3,2.3,4.3,4.1,6c1.7,1.7,3.7,3,6,4c2.3,1,4.8,1.5,7.4,1.5c1.8,0,3.5-0.2,5.1-0.7c1.7-0.5,3.2-1.1,4.6-2
				c1.4-0.9,2.7-1.9,3.9-3.1c1.2-1.2,2.1-2.6,3-4l0-12l-13.9,0L876.5,572.5L876.5,572.5z M879.7,568.2l5.7,0l0,7.1
				c-1.3,2-2.9,3.5-4.9,4.7c-2,1.2-4.3,1.8-6.8,1.8c-1.9,0-3.7-0.3-5.4-1c-1.7-0.7-3.1-1.6-4.4-2.8c-1.3-1.2-2.3-2.7-3-4.4
				c-0.7-1.7-1.1-3.6-1.1-5.6c0-2,0.4-3.9,1.1-5.6c0.7-1.7,1.7-3.1,2.9-4.4c1.2-1.2,2.7-2.2,4.3-2.8s3.5-1,5.4-1
				c0.8,0,1.6,0,2.3,0.2c0.7,0.2,1.3,0.2,1.8,0.4c0.6,0.1,1.1,0.3,1.6,0.5l-0.9,1.3c-0.4-0.1-0.9-0.3-1.4-0.4
				c-0.4-0.1-0.9-0.2-1.5-0.3s-1.2-0.2-1.8-0.2c-1.7,0-3.3,0.3-4.8,0.9c-1.5,0.6-2.8,1.4-3.9,2.5c-1.1,1.1-2,2.4-2.6,4
				c-0.6,1.5-1,3.2-1,5.1c0,1.9,0.3,3.5,1,5.1c0.6,1.5,1.5,2.9,2.7,4s2.5,1.9,4,2.5c1.5,0.6,3.1,0.9,4.8,0.9c2.2,0,4.1-0.5,5.9-1.5
				c1.8-1,3.2-2.3,4.4-4l0-5.4l-4.3,0L879.7,568.2L879.7,568.2z"/>
			<path class="st13" d="M912.4,557.5c-1.9-1.4-4.4-2.2-7.7-2.2l-4.4,0l0,16.6l4.4,0c3.3,0,5.9-0.7,7.7-2.1c1.9-1.4,2.8-3.5,2.8-6.1
				C915.2,561.1,914.2,559,912.4,557.5z M909,566.6c-1,0.6-2.1,0.9-3.5,0.9l-0.6,0l0-8l0.6,0c1.4,0,2.5,0.3,3.5,0.9
				c1,0.6,1.4,1.6,1.4,3.1C910.4,565,910,566,909,566.6z"/>
			<path class="st13" d="M919.5,571.6c0.6-0.8,1.2-1.9,1.7-3.1c0.5-1.3,0.8-2.8,0.8-4.6c0-2.3-0.4-4.3-1.2-6
				c-0.8-1.7-1.9-3.2-3.4-4.4c-1.4-1.2-3.1-2.1-5.1-2.7s-4.1-0.9-6.4-0.9l-12.4,0l0,0l0.1,36l11.5,0l0-9.1l5.4,9.1l13.5,0l-6.8-11.9
				C918,573.3,918.8,572.5,919.5,571.6z M915.6,581.5l-1.7,0l-5.1-8.7c-1.3,0.3-2.7,0.4-4.1,0.4l-4.4,0l0,8.2l-1.4,0l-0.1-27.4
				l5.8,0c1.7,0,3.3,0.2,4.7,0.6c1.4,0.4,2.7,1,3.8,1.8s1.9,1.8,2.5,3c0.6,1.2,0.9,2.6,0.9,4.2c0,2.3-0.6,4.1-1.7,5.5
				c-1.2,1.4-2.7,2.5-4.7,3.2L915.6,581.5z"/>
			<path class="st13" d="M943.1,572.1c0,1.3-0.3,2.2-0.8,2.9s-1.4,1-2.6,1c-1.2,0-2.1-0.3-2.6-1s-0.8-1.6-0.8-2.9l0-22.5l-11.5,0
				l0,22.9c0,2.4,0.4,4.4,1.1,6.2s1.7,3.2,3,4.4c1.3,1.2,2.9,2,4.7,2.6c1.8,0.6,3.9,0.9,6.2,0.9c2.3,0,4.3-0.3,6.1-0.9
				c1.8-0.6,3.4-1.4,4.7-2.6c1.3-1.2,2.3-2.6,3-4.4s1.1-3.8,1.1-6.2l0-22.9l-11.6,0L943.1,572.1L943.1,572.1z M947.8,572.2l0-18.2
				l1.5,0l0,18.2c0,3-0.8,5.4-2.5,7c-1.7,1.6-4,2.4-7.1,2.4c-3.1,0-5.4-0.8-7.1-2.4c-1.6-1.6-2.5-3.9-2.5-7l0-18.2l1.4,0l0,18.2
				c0,5.3,2.7,8,8.1,8C945.1,580.2,947.8,577.5,947.8,572.2z"/>
			<path class="st13" d="M985.6,570.5c-0.4-1-0.9-1.9-1.5-2.6c-0.6-0.8-1.4-1.4-2.2-2c0.5-0.4,0.9-1,1.3-1.6c0.3-0.5,0.6-1.2,0.9-2
				s0.4-1.8,0.4-3c0-1.6-0.3-3-0.9-4.2c-0.6-1.2-1.4-2.2-2.5-3s-2.3-1.4-3.8-1.8c-1.5-0.4-3.1-0.6-4.9-0.6l-14.1,0l0,0l0.1,36
				l14.7,0c2,0,3.8-0.3,5.5-0.8c1.7-0.5,3-1.3,4.2-2.3c1.1-1,2-2.2,2.6-3.6c0.6-1.4,0.9-3,0.9-4.7
				C986.2,572.8,986,571.5,985.6,570.5z M978.6,579.4c-1.5,1.4-3.9,2.1-7,2.1l0,0l-7.8,0l-0.1-27.4l7.8,0c2.5,0,4.5,0.6,5.9,1.7
				c1.4,1.2,2.2,2.9,2.2,5.1c0,1.3-0.2,2.3-0.7,3.1c-0.5,0.8-1,1.5-1.7,1.9c-0.7,0.5-1.5,0.9-2.3,1.2c1.1,0.2,2.1,0.6,3,1.2
				c0.7,0.5,1.4,1.2,2,2.1c0.6,0.9,0.9,2.1,0.9,3.5C980.8,576.1,980.1,577.9,978.6,579.4z"/>
			<path class="st13" d="M977.1,569.2c-0.7-0.5-1.6-0.8-2.5-1.1c-0.9-0.2-2-0.3-3.1-0.3l-6.3,0l0,12.4l6.3,0c2.4,0,4.3-0.5,5.8-1.5
				c1.5-1,2.2-2.6,2.2-4.8c0-1.1-0.2-2-0.6-2.8C978.4,570.3,977.8,569.7,977.1,569.2z M970.8,577.3l-1.3,0l0-6.3l1.3,0
				c2.7,0,4.1,1,4.1,3.1C974.9,576.2,973.5,577.3,970.8,577.3z"/>
			<path class="st13" d="M976.6,564.9c1-1,1.5-2.4,1.5-4c0-1.7-0.5-3-1.5-4c-1-1-2.7-1.5-5.1-1.5l-6.4,0l0,11.1l6.4,0
				C973.9,566.4,975.6,565.9,976.6,564.9z M969.5,563.1l0-5l1.3,0c1.8,0,2.7,0.8,2.7,2.5s-0.9,2.5-2.7,2.5L969.5,563.1z"/>
		</g>
		<g>
			<path class="st14" d="M725.9,562.2c-0.7-0.6-1.5-1-2.4-1.3s-1.9-0.5-2.9-0.5s-2,0.2-2.9,0.6s-1.6,0.9-2.2,1.6
				c-0.6,0.7-1.1,1.5-1.5,2.4s-0.5,2-0.5,3s0.2,2.1,0.6,3c0.4,0.9,0.9,1.7,1.6,2.4s1.5,1.2,2.4,1.6s1.9,0.6,3,0.6
				c1.2,0,2.3-0.3,3.4-0.8c1-0.5,1.9-1.2,2.6-2.1h-3.2V565h13.9v12c-0.8,1.5-1.8,2.8-3,4s-2.4,2.2-3.9,3.1c-1.4,0.9-3,1.5-4.6,2
				s-3.4,0.7-5.1,0.7c-2.6,0-5-0.5-7.4-1.5c-2.3-1-4.3-2.3-6-4s-3.1-3.7-4.1-6s-1.5-4.8-1.5-7.5c0-2.6,0.5-5,1.4-7.4s2.2-4.3,3.9-6
				s3.6-3.1,5.8-4.1s4.7-1.5,7.3-1.5c2,0,3.8,0.2,5.2,0.6c1.5,0.4,2.7,0.8,3.7,1.3c1.2,0.6,2.2,1.2,3,1.9L725.9,562.2z M726.4,555.2
				c-0.5-0.2-1-0.4-1.6-0.5c-0.5-0.1-1.1-0.3-1.8-0.4s-1.4-0.2-2.3-0.2c-1.9,0-3.7,0.3-5.4,1s-3.1,1.6-4.3,2.8s-2.2,2.7-2.9,4.4
				s-1.1,3.6-1.1,5.6s0.4,3.9,1.1,5.6c0.7,1.7,1.7,3.2,3,4.4s2.7,2.2,4.4,2.8c1.7,0.7,3.5,1,5.4,1c2.5,0,4.7-0.6,6.8-1.8
				s3.7-2.7,4.9-4.7v-7.1H727v1.3h4.3v5.4c-1.1,1.7-2.6,3-4.4,4c-1.8,1-3.8,1.5-5.9,1.5c-1.7,0-3.3-0.3-4.8-0.9
				c-1.5-0.6-2.8-1.4-4-2.5s-2-2.4-2.7-4c-0.7-1.5-1-3.2-1-5.1s0.3-3.5,1-5.1c0.6-1.5,1.5-2.8,2.6-4c1.1-1.1,2.4-2,3.9-2.5
				c1.5-0.6,3.1-0.9,4.8-0.9c0.7,0,1.3,0,1.8,0.2s1.1,0.2,1.5,0.3c0.5,0.1,1,0.3,1.4,0.4L726.4,555.2z"/>
			<path class="st14" d="M750,549.9h8.7l13.7,36.1H761l-1.2-3.2h-10.9l-1.2,3.2h-11.4L750,549.9z M744.3,581.6l1-2.7h17.9l1,2.7h1.5
				l-10.4-27.4h-2.1l-10.4,27.4H744.3z M754.3,555.5l8.4,22.1h-16.9L754.3,555.5z M756.7,574.8l-2.4-6.3l-2.4,6.3H756.7z"/>
			<path class="st14" d="M773,574.8c0.8,0.2,1.6,0.5,2.5,0.6c0.7,0.2,1.5,0.3,2.5,0.4c0.9,0.1,1.8,0.2,2.8,0.2
				c1.7,0,2.5-0.6,2.5-1.8c0-0.5-0.2-1-0.8-1.4c-0.5-0.5-1.2-1-1.9-1.6c-0.8-0.6-1.6-1.2-2.5-2c-0.9-0.7-1.7-1.5-2.5-2.5
				c-0.8-0.9-1.4-2-1.9-3.2s-0.8-2.5-0.8-4c0-1.7,0.3-3.2,0.9-4.5s1.5-2.4,2.5-3.2c1.1-0.9,2.3-1.5,3.8-2s3-0.7,4.7-0.7
				c0.9,0,1.7,0,2.6,0.1s1.6,0.2,2.3,0.2c0.8,0.1,1.6,0.2,2.3,0.3v10.1c-0.3,0-0.6-0.1-1-0.1c-0.3,0-0.6-0.1-1-0.1s-0.7,0-1.1,0
				c-0.2,0-0.5,0-0.8,0s-0.6,0.1-0.9,0.1c-0.3,0.1-0.5,0.2-0.8,0.4c-0.2,0.2-0.3,0.4-0.3,0.8c0,0.3,0.2,0.7,0.7,1.1s1.1,0.9,1.8,1.5
				s1.5,1.2,2.3,2s1.6,1.6,2.3,2.6s1.3,2.1,1.8,3.3s0.7,2.6,0.7,4.1c0,1.6-0.2,3.1-0.8,4.5c-0.5,1.4-1.3,2.6-2.3,3.6
				s-2.4,1.8-4.1,2.4c-1.7,0.6-3.6,0.9-5.9,0.9c-1.4,0-2.6-0.1-3.8-0.2s-2.2-0.3-3.1-0.5c-1-0.2-2-0.4-2.9-0.7L773,574.8L773,574.8z
				 M777.5,581.2c0.5,0.1,1,0.2,1.6,0.3c0.5,0.1,1,0.1,1.6,0.2s1.1,0.1,1.7,0.1c1,0,2-0.1,3-0.3s1.8-0.6,2.6-1.2s1.4-1.2,1.8-2.1
				c0.5-0.8,0.7-1.9,0.7-3.1c0-1-0.3-2-0.8-3s-1.2-1.8-2-2.7s-1.7-1.7-2.6-2.5s-1.8-1.6-2.6-2.4s-1.5-1.6-2-2.4s-0.8-1.7-0.8-2.5
				c0-1.3,0.4-2.3,1.2-3s2.2-1,4-1c0.3,0,0.6,0,0.9,0c0.3,0,0.6,0,0.9,0.1c0.3,0,0.6,0,0.9,0v-1.4c-0.2,0-0.5,0-0.8,0
				c-0.2,0-0.5-0.1-0.8-0.1s-0.6,0-1,0c-2,0-3.5,0.4-4.8,1.3c-1.3,0.9-1.9,2.3-1.9,4.1c0,1,0.3,2,0.8,2.8s1.2,1.8,2,2.6
				s1.7,1.7,2.6,2.5c0.9,0.8,1.8,1.6,2.6,2.4s1.5,1.7,2,2.5s0.8,1.8,0.8,2.7c0,1.7-0.6,3-1.8,4s-2.8,1.3-4.8,1.3
				c-1.2,0-2.3-0.1-3.3-0.3c-0.5-0.1-1.1-0.2-1.6-0.3L777.5,581.2L777.5,581.2z"/>
			<path class="st14" d="M808,575.9c0-2.2,0.5-4,1.5-5.5s2.3-2.8,3.9-3.8c-0.8-0.9-1.5-2-2.1-3.1s-0.8-2.5-0.8-3.9
				c0-1.5,0.3-2.9,0.9-4.2s1.4-2.4,2.4-3.3c1-0.9,2.2-1.7,3.6-2.2s2.8-0.8,4.4-0.8c1.8,0,3.4,0.3,4.8,0.8c1.4,0.5,2.7,1.3,3.7,2.2
				s1.8,2.1,2.3,3.4c0.5,1.3,0.8,2.8,0.8,4.3c0,1.8-0.5,3.5-1.5,4.8c-1,1.4-2.2,2.6-3.5,3.6l4.9,4.1c0.4-0.4,0.9-0.9,1.3-1.3
				c0.4-0.5,0.9-1.1,1.5-1.9l7.2,6.2c-0.8,1.1-1.6,2.1-2.5,3.1s-1.9,1.9-2.9,2.8c-0.9,0.7-1.9,1.4-3,2.1c-1.1,0.7-2.3,1.3-3.6,1.9
				c-1.3,0.5-2.7,1-4.2,1.3s-3.1,0.5-4.8,0.5c-2.5,0-4.6-0.3-6.4-0.8s-3.3-1.3-4.5-2.3s-2-2.1-2.6-3.5
				C808.3,578.9,808,577.5,808,575.9z M830.8,574.6l-8.3-6.9c2-1.1,3.6-2.2,4.8-3.5s1.8-2.8,1.8-4.6c0-0.9-0.2-1.8-0.6-2.6
				c-0.4-0.8-0.9-1.5-1.5-2c-0.7-0.6-1.4-1-2.3-1.3s-1.8-0.5-2.8-0.5c-0.9,0-1.7,0.2-2.5,0.5s-1.6,0.7-2.2,1.3
				c-0.7,0.6-1.2,1.2-1.5,2c-0.4,0.8-0.6,1.7-0.6,2.7c0,1.3,0.4,2.5,1.1,3.5c0.7,1,1.7,2,2.9,3.1l1.3,1.1L819,568
				c-0.8,0.4-1.5,0.8-2.2,1.3s-1.3,1-1.8,1.6s-0.9,1.3-1.2,2s-0.5,1.6-0.5,2.5c0,1.2,0.2,2.2,0.8,3.1c0.5,0.9,1.2,1.6,2,2.2
				c0.8,0.6,1.8,1,2.9,1.3s2.2,0.4,3.3,0.4c2.5,0,4.7-0.4,6.7-1.2s3.6-1.7,5-2.7c1.6-1.1,3-2.4,4.3-3.9l-1-0.7
				c-0.6,0.7-1.2,1.3-1.8,2c-0.7,0.6-1.3,1.2-2.1,1.7c-1.3,0.9-2.8,1.7-4.7,2.5c-1.8,0.7-4,1.1-6.3,1.1c-0.9,0-1.8-0.1-2.7-0.3
				s-1.7-0.5-2.5-1c-0.7-0.5-1.3-1.1-1.8-1.8c-0.5-0.8-0.7-1.7-0.7-2.8c0-1.5,0.5-2.8,1.3-3.8c0.9-1,2.2-1.8,3.8-2.6l1.6-0.8l8.4,7
				L830.8,574.6z M827.7,559.6c0,1.7-0.5,3.1-1.6,4.1s-2.6,2-4.5,3.1l-1.7-1.4c-1.4-1.2-2.4-2.2-2.8-3.1s-0.7-1.7-0.7-2.6
				c0-1.5,0.5-2.8,1.5-3.7s2.3-1.5,4-1.5c0.7,0,1.4,0.1,2.1,0.3c0.7,0.2,1.3,0.5,1.9,1s1,1,1.3,1.6
				C827.5,558,827.7,558.8,827.7,559.6z M822.6,577.7c0.5,0,1.1,0,1.7-0.1c0.6-0.1,1.1-0.2,1.6-0.4l-5.2-4.4
				c-0.9,0.7-1.3,1.5-1.3,2.4s0.3,1.5,1,1.9C821,577.5,821.8,577.7,822.6,577.7z M820,559.4c0,0.5,0.1,1,0.3,1.4s0.7,1,1.4,1.6
				c0.8-0.5,1.4-1,1.8-1.4c0.4-0.5,0.5-1,0.5-1.6c0-1.3-0.7-2-2-2c-0.6,0-1.1,0.2-1.5,0.6C820.2,558.3,820,558.8,820,559.4z"/>
			<path class="st14" d="M878.7,562.2c-0.7-0.6-1.5-1-2.4-1.3s-1.9-0.5-2.9-0.5s-2,0.2-2.9,0.6s-1.6,0.9-2.2,1.6
				c-0.6,0.7-1.1,1.5-1.5,2.4s-0.5,2-0.5,3s0.2,2.1,0.6,3c0.4,0.9,0.9,1.7,1.6,2.4s1.5,1.2,2.4,1.6s1.9,0.6,3,0.6
				c1.2,0,2.3-0.3,3.4-0.8c1-0.5,1.9-1.2,2.6-2.1h-3.2V565h13.9v12c-0.8,1.5-1.8,2.8-3,4s-2.4,2.2-3.9,3.1c-1.4,0.9-3,1.5-4.6,2
				c-1.7,0.5-3.4,0.7-5.1,0.7c-2.6,0-5-0.5-7.4-1.5c-2.3-1-4.3-2.3-6-4s-3.1-3.7-4.1-6s-1.5-4.8-1.5-7.5c0-2.6,0.5-5,1.4-7.4
				s2.2-4.3,3.9-6s3.6-3.1,5.8-4.1s4.7-1.5,7.3-1.5c2,0,3.8,0.2,5.2,0.6c1.5,0.4,2.7,0.8,3.7,1.3c1.2,0.6,2.2,1.2,3,1.9L878.7,562.2
				z M879.2,555.2c-0.5-0.2-1-0.4-1.6-0.5c-0.5-0.1-1.1-0.3-1.8-0.4s-1.4-0.2-2.3-0.2c-1.9,0-3.7,0.3-5.4,1s-3.1,1.6-4.3,2.8
				s-2.2,2.7-2.9,4.4s-1.1,3.6-1.1,5.6s0.4,3.9,1.1,5.6c0.7,1.7,1.7,3.2,3,4.4s2.7,2.2,4.4,2.8c1.7,0.7,3.5,1,5.4,1
				c2.5,0,4.7-0.6,6.8-1.8s3.7-2.7,4.9-4.7v-7.1h-5.7v1.3h4.3v5.4c-1.1,1.7-2.6,3-4.4,4c-1.8,1-3.8,1.5-5.9,1.5
				c-1.7,0-3.3-0.3-4.8-0.9c-1.5-0.6-2.8-1.4-4-2.5s-2-2.4-2.7-4c-0.7-1.5-1-3.2-1-5.1s0.3-3.5,1-5.1c0.6-1.5,1.5-2.8,2.6-4
				c1.1-1.1,2.4-2,3.9-2.5c1.5-0.6,3.1-0.9,4.8-0.9c0.7,0,1.3,0,1.8,0.2s1.1,0.2,1.5,0.3c0.5,0.1,1,0.3,1.4,0.4L879.2,555.2z"/>
			<path class="st14" d="M893.4,549.9h12.4c2.3,0,4.5,0.3,6.4,0.9c2,0.6,3.7,1.5,5.1,2.7c1.4,1.2,2.6,2.7,3.4,4.4s1.2,3.8,1.2,6
				c0,1.8-0.2,3.3-0.8,4.6c-0.5,1.3-1.1,2.3-1.7,3.1c-0.7,0.9-1.5,1.7-2.4,2.4l6.8,11.9h-13.5l-5.4-9.1v9.1h-11.5V549.9L893.4,549.9
				z M904.7,573.4c1.4,0,2.8-0.1,4.1-0.4l5.1,8.7h1.7l-5.4-9.1c2-0.7,3.5-1.7,4.7-3.2c1.2-1.4,1.7-3.3,1.7-5.5c0-1.6-0.3-3-0.9-4.2
				s-1.5-2.2-2.5-3c-1.1-0.8-2.3-1.4-3.8-1.8c-1.4-0.4-3-0.6-4.7-0.6h-5.8v27.4h1.4v-8.2h4.4V573.4z M900.2,572.1v-16.6h4.4
				c3.3,0,5.8,0.7,7.7,2.2c1.9,1.4,2.8,3.5,2.8,6.2s-0.9,4.7-2.8,6.1c-1.9,1.4-4.4,2.1-7.7,2.1H900.2z M904.9,567.6h0.6
				c1.4,0,2.5-0.3,3.5-0.9c1-0.6,1.4-1.6,1.4-3.1s-0.5-2.5-1.4-3.1c-1-0.6-2.1-0.9-3.5-0.9h-0.6V567.6z"/>
			<path class="st14" d="M939.7,586.9c-2.3,0-4.3-0.3-6.2-0.9c-1.8-0.6-3.4-1.4-4.7-2.6c-1.3-1.2-2.3-2.6-3-4.4s-1.1-3.8-1.1-6.2
				v-22.9h11.5v22.5c0,1.3,0.3,2.2,0.8,2.9s1.4,1,2.6,1c1.2,0,2.1-0.3,2.6-1s0.8-1.6,0.8-2.9v-22.5h11.6v22.9c0,2.4-0.3,4.5-1.1,6.2
				c-0.7,1.8-1.7,3.2-3,4.4s-2.9,2-4.7,2.6C944,586.6,942,586.9,939.7,586.9z M939.7,580.4c-5.4,0-8.1-2.7-8.1-8v-18.2h-1.4v18.2
				c0,3,0.8,5.3,2.5,7c1.6,1.6,4,2.4,7.1,2.4s5.4-0.8,7.1-2.4c1.7-1.6,2.5-3.9,2.5-7v-18.2h-1.5v18.2
				C947.8,577.7,945.1,580.4,939.7,580.4z"/>
			<path class="st14" d="M958.3,549.9h14.1c1.8,0,3.4,0.2,4.9,0.6c1.5,0.4,2.8,1,3.8,1.8c1.1,0.8,1.9,1.8,2.5,3s0.9,2.6,0.9,4.2
				c0,1.2-0.1,2.1-0.4,3s-0.6,1.5-0.9,2c-0.4,0.7-0.8,1.2-1.3,1.6c0.8,0.5,1.5,1.2,2.2,2c0.5,0.7,1,1.5,1.5,2.6s0.7,2.3,0.7,3.8
				c0,1.7-0.3,3.3-0.9,4.7c-0.6,1.4-1.5,2.6-2.6,3.6s-2.5,1.8-4.2,2.3s-3.5,0.8-5.5,0.8h-14.7L958.3,549.9L958.3,549.9z
				 M971.5,581.6c3.2,0,5.5-0.7,7-2.1c1.5-1.4,2.3-3.2,2.3-5.5c0-1.5-0.3-2.7-0.9-3.5s-1.3-1.6-2-2.1c-0.9-0.6-1.9-1-3-1.2
				c0.9-0.2,1.6-0.7,2.3-1.2c0.6-0.5,1.2-1.1,1.7-1.9s0.7-1.8,0.7-3.1c0-2.3-0.7-4-2.2-5.1c-1.4-1.2-3.4-1.7-5.9-1.7h-7.8v27.4
				L971.5,581.6L971.5,581.6z M965.1,566.6v-11.2h6.4c2.3,0,4,0.5,5.1,1.5c1,1,1.5,2.4,1.5,4c0,1.7-0.5,3-1.5,4s-2.7,1.5-5.1,1.5
				L965.1,566.6L965.1,566.6z M965.1,580.3v-12.4h6.3c1.1,0,2.2,0.1,3.1,0.3c1,0.2,1.8,0.6,2.5,1.1s1.3,1.1,1.7,1.9
				c0.4,0.8,0.6,1.7,0.6,2.8c0,2.2-0.7,3.8-2.2,4.8s-3.4,1.5-5.8,1.5L965.1,580.3L965.1,580.3z M973.5,560.8c0-1.7-0.9-2.5-2.7-2.5
				h-1.3v5h1.3C972.6,563.3,973.5,562.5,973.5,560.8z M970.8,577.5c2.7,0,4.1-1,4.1-3.1s-1.4-3.1-4.1-3.1h-1.3v6.3h1.3V577.5z"/>
		</g>
	</g>
	<path class="st15" d="M689.7,649.2V783h540.6V649.2H689.7z M814.9,718h-114v-59h114V718z M942.9,718h-114v-59h114V718z M1071.9,718
		h-114v-59h114V718z"/>
	<path d="M1147.8,627v-38.6c0,0-0.9-14.2,9.6-14.2h14.8v13.3h-6.6c0,0-2.5,1.1-3.3,2c-0.9,1.1-2.2,5-2.2,5V627H1147.8z"/>
	<path d="M1118.2,627v-38.6c0,0-0.9-14.2,9.6-14.2h14.8v13.3h-6.6c0,0-2.5,1.1-3.3,2c-0.9,1.1-2.2,5-2.2,5V627H1118.2z"/>
	<polygon points="689.7,649.2 659.9,613 1257.9,613 1230.3,649.2 	"/>
	<rect x="659.9" y="606" class="st16" width="599" height="7"/>
	<g>
		<rect x="1119.6" y="657" class="st10" width="55.3" height="118"/>
		<polygon class="st14" points="1125.9,766 1132.9,662 1135.9,662 1127.9,766 		"/>
		<polygon class="st14" points="1130.9,766 1137.9,662 1140.9,662 1132.9,766 		"/>
		<rect x="1119.6" y="712.3" width="55.3" height="3.2"/>
		<rect x="1119.6" y="657" class="st17" width="55.3" height="9.6"/>
		<rect x="1119.6" y="766.5" class="st17" width="55.3" height="8.5"/>
		<g class="st5">
			<rect x="1119.6" y="657" class="st10" width="55.3" height="118"/>
		</g>
	</g>
	<g>
		<g>
			<rect x="810.9" y="634" class="st14" width="87" height="4"/>
			<rect x="810.9" y="627" class="st14" width="87" height="4"/>
		</g>
		<g class="st12">
			<g>
				<rect x="810.9" y="634" class="st14" width="87" height="4"/>
				<rect x="810.9" y="627" class="st14" width="87" height="4"/>
			</g>
		</g>
	</g>
	<g class="st7">
		<rect x="957.9" y="659" class="st10" width="114" height="59"/>
		<g class="st9">
			<rect x="957.9" y="659" class="st10" width="114" height="59"/>
		</g>
		<polygon class="st14" points="1021.9,661 1024.9,661 1014.9,716 1011.9,716 		"/>
		<polygon class="st14" points="1026.9,661 1029.9,661 1019.9,716 1016.9,716 		"/>
	</g>
	<g>
		<g>
			<rect x="1025.9" y="634" class="st14" width="87" height="4"/>
			<rect x="1025.9" y="627" class="st14" width="87" height="4"/>
		</g>
	</g>
	<g class="st12">
		<g>
			<rect x="1025.9" y="634" class="st14" width="87" height="4"/>
			<rect x="1025.9" y="627" class="st14" width="87" height="4"/>
		</g>
	</g>
	<polygon class="st18" points="689.9,783 1229.9,783 1238.9,833 672.9,833 	"/>
	<g>
		<g class="st12">
			<ellipse cx="854.1" cy="819.2" rx="25.8" ry="4.9"/>
		</g>
		<polygon class="st19" points="838.4,700 846.9,700 870.4,700 870.4,706 874.4,706 874.4,820.5 846.5,820.5 834.9,820.5 
			834.9,706.5 837.9,706.5 		"/>
		<rect x="852.4" y="729.5" class="st16" width="17" height="33"/>
		<path class="st20" d="M874.9,720.9c0,0,5.5,0.6,5.5,8.6v57c0,0-1,8-7,8s-9-3-9-8s0-24,0-24h3.7v26c0,0,0.3,3,5.3,3c3,0,4-4,4-4
			v-61c0,0,0-2-2.5-2V720.9z"/>
		<path class="st21" d="M866.9,743v-8c0,0,0-2-5-2v2c0,0,3.5-0.5,3.5,2.5s0,5,0,5s-3,1-3,6l-1,1c0,0-2-1-2,10h3l0.5,1.5h6v-17
			L866.9,743z M863.4,757.5h-1v-7l1,1V757.5z"/>
		<rect x="834.9" y="803" class="st22" width="39" height="8"/>
		<polygon class="st23" points="838.4,700 846.9,700 846.5,820.5 834.9,820.5 834.9,706.5 837.9,706.5 		"/>
	</g>
	<rect x="672.9" y="833" class="st4" width="566" height="9"/>
	<polygon class="st18" points="689.9,783 608.9,796 594.9,842 672.9,833 	"/>
	<polygon class="st4" points="672.9,842 672.9,833 594.9,842 	"/>
	<polygon class="st18" points="1229.9,783 1310.9,796 1324.9,842 1238.9,833 	"/>
	<polygon class="st4" points="1238.9,842 1238.9,833 1324.9,842 	"/>
	<g class="st7">
		<rect x="700.9" y="659" class="st8" width="114" height="59"/>
		<g class="st9">
			<rect x="700.9" y="659" class="st10" width="114" height="59"/>
		</g>
		<polygon class="st14" points="795.9,661 798.9,661 788.9,716 785.9,716 		"/>
		<polygon class="st14" points="800.9,661 803.9,661 793.9,716 790.9,716 		"/>
		<polygon class="st14" points="805.9,661 808.9,661 798.9,716 795.9,716 		"/>
	</g>
	<g>
		<g class="st12">
			<ellipse cx="1064.7" cy="819.2" rx="25.8" ry="4.9"/>
		</g>
		<polygon class="st19" points="1080.9,701 1072.5,701 1048.9,701 1048.9,707 1044.9,707 1044.9,821.5 1072.8,821.5 1084.4,821.5 
			1084.4,707.5 1081.4,707.5 		"/>
		<rect x="1049.9" y="730.5" class="st16" width="17" height="33"/>
		<path class="st20" d="M1044.4,721.9c0,0-5.5,0.6-5.5,8.6v57c0,0,1,8,7,8s9-3,9-8s0-24,0-24h-3.7v26c0,0-0.3,3-5.3,3c-3,0-4-4-4-4
			v-61c0,0,0-2,2.5-2V721.9z"/>
		<path class="st21" d="M1050.4,745v17h6l0.5-1.5h3c0-11-2-10-2-10l-1-1c0-5-3-6-3-6s0-2,0-5s3.5-2.5,3.5-2.5v-2c-5,0-5,2-5,2v8
			L1050.4,745z M1055.9,752.5l1-1v7h-1V752.5z"/>
		<rect x="1045.4" y="804" class="st22" width="39" height="8"/>
		<polygon class="st23" points="1080.9,701 1072.5,701 1072.8,821.5 1084.4,821.5 1084.4,707.5 1081.4,707.5 		"/>
	</g>
	<path class="st20" d="M970.9,833c0,0-2.6,1-7.5,1c-4.4,0-7.5-1-7.5-1V623h15V833z"/>
	<g class="st24">
		<rect x="923.2" y="657" width="0.4" height="9.7"/>
		
			<rect x="912.7" y="666.2" transform="matrix(0.9999 -1.719836e-02 1.719836e-02 0.9999 -11.435 15.989)" class="st14" width="22.3" height="13.2"/>
		
			<rect x="912.8" y="676.7" transform="matrix(0.9999 -1.719836e-02 1.719836e-02 0.9999 -11.5261 15.9915)" class="st19" width="22.3" height="2.8"/>
		
			<rect x="912.6" y="666.2" transform="matrix(0.9999 -1.719836e-02 1.719836e-02 0.9999 -11.3455 15.9865)" class="st19" width="22.3" height="2.8"/>
		<g>
			<path d="M917.4,671.3c0-0.2,0-0.5,0.1-0.6c0.1-0.2,0.2-0.3,0.3-0.5c0.1-0.1,0.3-0.2,0.5-0.3s0.3-0.1,0.5-0.1s0.3,0,0.5,0.1
				s0.3,0.2,0.5,0.3c0.1,0.1,0.2,0.3,0.3,0.5s0.1,0.4,0.1,0.6v3.1c0,0.2,0,0.5-0.1,0.7s-0.2,0.3-0.3,0.5c-0.1,0.1-0.3,0.2-0.5,0.3
				s-0.3,0.1-0.5,0.1s-0.3,0-0.5-0.1s-0.3-0.2-0.5-0.3c-0.1-0.1-0.3-0.3-0.3-0.4c-0.1-0.2-0.1-0.4-0.1-0.6V671.3z M918.4,674.4
				c0,0.2,0.1,0.4,0.2,0.5c0.1,0.1,0.2,0.1,0.4,0.1s0.3,0,0.4-0.2c0.1-0.1,0.2-0.2,0.2-0.5v-3.1c0-0.2-0.1-0.4-0.2-0.5
				c-0.1-0.1-0.2-0.1-0.4-0.1s-0.3,0-0.4,0.2c-0.1,0.1-0.2,0.2-0.2,0.5V674.4z"/>
			<path d="M921.1,675.8l-0.1-6h1.3c0.2,0,0.4,0,0.6,0.1s0.3,0.2,0.5,0.3c0.2,0.2,0.2,0.3,0.3,0.5s0.1,0.5,0.1,0.8s0,0.5,0,0.7
				s-0.1,0.4-0.2,0.5c-0.1,0.2-0.3,0.3-0.5,0.5c-0.2,0.1-0.5,0.2-0.8,0.2h-0.4v2.3L921.1,675.8z M921.9,670.6v2h0.4
				c0.2,0,0.3,0,0.4-0.1s0.2-0.1,0.2-0.2c0-0.1,0.1-0.2,0.1-0.3s0-0.3,0-0.4c0-0.1,0-0.3,0-0.4s0-0.2-0.1-0.3c0-0.1-0.1-0.2-0.2-0.2
				c-0.1,0-0.2-0.1-0.4-0.1H921.9z"/>
			<path d="M924.5,675.7l-0.1-6h2.5v0.8h-1.7v1.8h1.5v0.8h-1.5v1.8h1.7v0.8L924.5,675.7z"/>
			<path d="M927.6,675.7l-0.1-6h0.8l1.3,3.6l0,0l-0.1-3.6h0.8l0.1,6h-0.8l-1.4-3.6l0,0l0.1,3.6H927.6z"/>
		</g>
	</g>
</g>
<g id="Moving">
	<g>
		<rect x="-0.4" y="965.5" width="1919.7" height="52.7"/>
		<g>
			<g>
				<line class="st25" x1="-0.4" y1="991.9" x2="23.6" y2="991.9"/>
				<line class="st26" x1="167.6" y1="991.9" x2="1823.4" y2="991.9"/>
				<line class="st25" x1="1895.4" y1="991.9" x2="1919.4" y2="991.9"/>
			</g>
		</g>
		<path class="st4" d="M-0.4,1018.2h1919.7v17.3c0,0-374.2-11.3-411-8.7c-36.8,2.7-378.3,8.7-378.3,8.7l-538.1-8.7
			c0,0-399.6,9.6-427.5,8.7S0,1035.6,0,1035.6L-0.4,1018.2z"/>
	</g>
	<g id="GreyCar">
    <animateTransform id='grey-car'
      attributeName='transform'
      type='translate'
      from='-400 -20'
      to='50000 50'
      begin='2s'
      dur='30s'
      repeatCount='indefinite'
    />
		<path class="st27" d="M-425.4,836.3c0,0-18.7,0.9-23.1,1.4c-4.4,0.4-6.2,1-6.4,2.2c-0.1,1.2,6.1,6,11.1,7L-425.4,836.3z"/>
		<path class="st20" d="M-140.5,983.4c0,0-284.2,0-290.9,0s-56.2-10.3-57.7-11.4c-1.5-1.2-4.9-5.9-4.9-13.4s0-15.1,0-18
			s5.4-9.6,5.4-16.1s0-26.7,0-29s9.3-16.8,14-23.1c4.6-6.2,37.3-34.7,50-36.6s128.6-4.4,152.2-1s42.9,13.4,60.4,23.8
			c17.6,10.5,45,26.6,48.7,27.5c3.6,0.9,45.5,6.4,68.7,11c23.2,4.7,38.8,10.5,41.7,13.5s3.4,5.2,4.4,11.2s1.5,9.9,2.5,12.1
			s2.7,3.5,2.7,7.8s0,20,0,22.9s-15.1,15.7-20.8,16.7C-69.9,982-118.2,983.4-140.5,983.4z"/>
		<path class="st4" d="M-44,937.7c0.4,1,0.7,2.2,0.7,3.9c0,4.3,0,20,0,22.9s-15.1,15.7-20.8,16.7s-54,2.3-76.3,2.3
			c0,0-284.2,0-290.9,0s-56.2-10.3-57.7-11.4c-1.5-1.2-4.9-5.9-4.9-13.4s0-15.1,0-18s5.4-9.6,5.4-16.1c0-2.7,0-7.7,0-12.8L-44,937.7
			z"/>
		<path d="M-394.7,873.7l0.9,0.7c-5.6,6.8-10.5,14.5-9.4,24.5c0.9,7.8,10.3,15.7,21.2,25c3.4,2.9,7,5.9,10.4,9
			c9.6,8.7,15.4,20.9,17.3,36.3v0.3c0.4,3.5,2.2,5.3,5.4,5.3h60.7c0.6-2,3-11.8,3-25c0-14.7-2.9-44.3-5.9-54.5
			c-0.2-1.8-0.4-4-0.7-6.5c-0.7-6.5-1.5-14.6-2.4-20.5c-1.3-8.3-3.3-23.6-3.7-26.3c-3.9-0.3-8.3-0.6-12.6-0.8V840
			c13.8,0.6,27.6,2.2,27.8,2.2l-0.1,1.2c-0.1,0-6-0.7-13.9-1.3c0.4,3.3,2.4,18,3.7,26.1c0.9,5.9,1.8,14,2.4,20.5
			c0.2,2.5,0.5,4.7,0.7,6.3c3,10.3,5.9,40,5.9,54.8c0,12.8-2.3,22.3-3,25h107.6c4.5,0,5.9-2.1,6.7-5.6s3.9-28.8,3.9-41.4V926
			c0-11.5,0-17.3-5.2-27.2c-5.4-10.2-16.7-16.7-16.8-16.7l0.6-1c0.5,0.3,11.7,6.7,17.3,17.2c5.3,10.1,5.3,16,5.3,27.7v1.8
			c0,13-3,38-3.9,41.7c-0.8,3.3-2.3,6.5-7.8,6.5h-169.5c-2.6,0-5.9-1.1-6.5-6.3v-0.3c-1.9-15.1-7.6-27-16.9-35.5
			c-3.4-3.1-7-6.1-10.4-9c-11.1-9.4-20.7-17.5-21.6-25.7C-405.5,888.5-400.1,880.3-394.7,873.7z"/>
		<g>
			<path class="st16" d="M-156,983.4c-0.6-2.9-0.9-5.8-0.9-8.9c0-24.2,19.6-43.8,43.8-43.8s43.8,19.6,43.8,43.8
				c0,2.4-0.2,4.8-0.6,7.1c-14.8,0.9-51.8,1.8-70.5,1.8C-140.5,983.4-146.2,983.4-156,983.4z"/>
			<path class="st16" d="M-453.7,979.8c-0.2-1.8-0.4-3.5-0.4-5.3c0-24.2,19.6-43.8,43.8-43.8s43.8,19.6,43.8,43.8
				c0,3.1-0.3,6-0.9,8.9c-35.9,0-62,0-64,0C-434.1,983.4-443.4,981.8-453.7,979.8z"/>
		</g>
		<circle class="st28" cx="-113.2" cy="974.5" r="37.2"/>
		<path class="st18" d="M-138.6,974.5c0,14,11.4,25.4,25.4,25.4s25.4-11.4,25.4-25.4s-11.4-25.4-25.4-25.4S-138.6,960.5-138.6,974.5
			z"/>
		<circle class="st28" cx="-410.3" cy="974.5" r="37.2"/>
		<path class="st18" d="M-435.7,974.5c0,14,11.4,25.4,25.4,25.4s25.4-11.4,25.4-25.4s-11.4-25.4-25.4-25.4
			C-424.3,949.1-435.7,960.5-435.7,974.5z"/>
		<g>
			<path class="st16" d="M-282.5,892.3c-1.3,0-2.8-1.3-3.6-3.7s-5.1-36.2-5.8-41c-0.7-4.8-0.7-6.5,2-6.3c10.5,0.8,21.1,1.9,30.5,3.3
				c6.4,1,20.3,5.6,31.8,11.8s43.3,27.9,45.1,30c4.3,4.8,1.6,8.9-6.2,8.7C-192.2,895-235.9,893.7-282.5,892.3L-282.5,892.3z"/>
			<path class="st16" d="M-400.2,882.7c4.5-11.2,28.3-40.1,43.8-42.4c7.2-1.1,28.6-1.2,52.1,0c1.4,0.1,3.5,0.3,3.7,3.3
				c0.3,3.2,3,35.7,3.3,41.4s-3.3,6.7-3.3,6.7l0,0c-49.3-1.5-96.4-3-97.4-3C-400.2,888.5-401.2,885.3-400.2,882.7z"/>
		</g>
		<path class="st29" d="M-149.2,900c-3.6-0.3-7.8-1.5-9-3.5c-0.7-1.2-3.8-7-5.9-10.8c0.3,0.1,0.5,0.2,0.7,0.2s0.5,0.1,0.8,0.2
			c2,3.8,4.7,8.8,5.3,9.8c0.8,1.4,4.2,2.6,8.1,2.9c1.9,0.2,25.7,4.9,48.7,9.4c19.7,3.9,40.1,7.9,41.4,8c1.9,0.1,6.7,0.1,9.5,0
			c0.1,0.4,0.2,0.8,0.3,1.2c-1.4,0-3.6,0-5.6,0c-1.7,0-3.3,0-4.2-0.1c-1.3-0.1-20-3.8-41.5-8C-122.6,905.1-147.4,900.2-149.2,900z"
			/>
		<path class="st14" d="M-59.3,911.8c2.2,1,8.3,8.7,9.1,13.8c0.8,5.1,0.1,6.8-2.6,6.3c-2.7-0.4-13.9-3.6-17.6-5.8
			s-15-12.6-15.8-14.3s2.4-3.7,4.8-4C-79,907.5-67.3,908.2-59.3,911.8z"/>
		<g>
		</g>
		<path class="st16" d="M-456.6,882.6c-5.4,0.1-17.5,0.1-25.1,0c2.5-3.9,5.1-7.8,7-10.4c2.9-3.9,17-16.7,30.2-26.1
			c14.9-0.5,53.3-1.8,54.5-1.2c1.5,0.8,1,2.7-2.2,4.9s-39.1,26.6-45.6,29.5C-444.3,882.4-448.5,882.4-456.6,882.6z"/>
		<path class="st30" d="M-466.1,918.5c-3.1,0-16.5,0-22.5,0c0-7.7,0-18.5,0-22.1c2.2,0,5.9,0,7.7,0c2,0,8.6,7.8,12.4,11.8
			C-464.8,912.2-462,918.5-466.1,918.5z"/>
		<g>
		</g>
	</g>
	<g id="OrangeCar">
    <animateTransform id='orange-car'
      attributeName='transform'
      type='translate'
      from='-400 -20'
      to='55000 50'
      begin='12s'
      dur='30s'
      repeatCount='indefinite'
    />
		<path class="st31" d="M-404.4,866.3c0,0-18.6,1.1-20.1,1.3s-1.9,2.3-0.5,3.4s6.2,4.9,6.2,4.9L-404.4,866.3z"/>
		<path class="st32" d="M-86.3,977.1c0,5.4-1.2,11.4-8.1,12.6c-6.9,1.2-20.3,2.3-24.5,2.3c-4.2,0-326.5,0-332.9,0s-15.8-5.4-20-12.6
			c-4.2-7.2-3.2-12.9-3.2-19.5s7-14.8,7-18s0-19.1,0-22.5s4.1-9.4,8.9-13.6c4.8-4.2,41.6-36.8,52.2-39.3s106.8-5.7,119-5.4
			c12.2,0.3,21.8,5.9,24.2,6.9c2.4,1,67.8,38.4,69.3,38.9s40.4,7,58.6,11.6s30.7,6.7,40.6,19C-87.3,947.2-86.3,965-86.3,977.1z"/>
		
			<linearGradient id="SVGID_2_" gradientUnits="userSpaceOnUse" x1="4220.8501" y1="-50.2203" x2="4220.8501" y2="-19.1155" gradientTransform="matrix(-1 0 0 1 3940.1482 980)">
			<stop  offset="0" style="stop-color:#FFBB00"/>
			<stop  offset="1" style="stop-color:#FFA400"/>
		</linearGradient>
		<path class="st33" d="M-98.6,933.8c1.2,1.2,2.4,2.4,3.6,3.9c7.7,9.6,8.7,27.4,8.7,39.5c0,5.4-1.2,11.4-8.1,12.6
			c-6.9,1.2-20.3,2.3-24.5,2.3c-4.2,0-326.5,0-332.9,0s-15.8-5.4-20-12.6c-4.2-7.2-3.2-12.9-3.2-19.5s7-14.8,7-18c0-1.3,0-4.5,0-8.2
			H-98.6L-98.6,933.8z"/>
		<g>
			<path class="st34" d="M-312.5,908.1c-1.2-0.1-1.6-1-1.8-1.7c-0.2-0.7-5.9-33.8-6.1-34.9s-0.8-2.5,0.6-2.5l0,0
				c8,0,15.6,0.1,21.7,0.2c3.5,0,17.9,3,26.8,7.9s35.8,22.8,40.2,26.3s3.6,9.7-4.3,9.7C-239.2,913-275.2,910.6-312.5,908.1
				L-312.5,908.1z"/>
			<path class="st34" d="M-401.9,897.5c2-5.4,13.9-24,21.8-26.2c6.4-1.8,29.3-2.3,51.1-2.4l0,0c0.9,0,1.4,0.7,1.5,1.8
				s2.3,33.4,2.2,34.9c-0.1,1.5-1.3,1.5-1.4,1.5c-36.9-2.5-71.1-4.9-71.8-4.9C-401,902.2-402.7,899.8-401.9,897.5z"/>
		</g>
		<g>
			<path class="st31" d="M-426.6,941.5c21,0,38,17,38,38c0,4.4-0.8,8.6-2.2,12.6c-34.8,0-59.2,0-60.9,0c-3.5,0-8-1.7-12.1-4.4
				c-0.6-2.6-0.9-5.4-0.9-8.2C-464.7,958.5-447.6,941.5-426.6,941.5z"/>
			<path class="st31" d="M-190.6,992c-1.4-3.9-2.2-8.2-2.2-12.6c0-21,17-38,38-38s38,17,38,38c0,4.4-0.8,8.6-2.2,12.6
				C-120.5,992-149.8,992-190.6,992z"/>
			<circle class="st28" cx="-154.7" cy="979.5" r="32.2"/>
			<path class="st35" d="M-176.8,979.5c0,12.2,9.9,22,22,22c12.2,0,22-9.9,22-22c0-12.2-9.9-22-22-22
				C-166.9,957.4-176.8,967.3-176.8,979.5z"/>
			<circle class="st28" cx="-426.6" cy="979.5" r="32.2"/>
			<path class="st35" d="M-448.7,979.5c0,12.2,9.9,22,22,22c12.2,0,22-9.9,22-22c0-12.2-9.9-22-22-22
				C-438.8,957.4-448.7,967.3-448.7,979.5z"/>
		</g>
		<g>
			<path class="st31" d="M-400,887.1c-10.1,13.9-8.9,25.4-7,35c1.6,8.4,8.3,16.5,16,25.9c2.6,3.1,5.2,6.3,7.9,9.8
				c11.5,15,12.4,22.1,12.5,23.4c0.1,1.9,1.1,4.2,5,4.2h157.7c3.6,0,3.6-2.8,3.6-4.1v-14.1c0-3.4,0.6-6.8,1.3-10.7
				c1-5.6,2.2-12.5,2.1-22.2c-0.1-16.3-8.2-23.1-21.5-32.4c-12.8-9-53.3-32.4-53.7-32.6c-3.3-1.9-9.5-4.2-15.5-4.7
				c-0.6,0-1.9-0.1-3.9-0.1c-15.9,0-77.1,1.8-83.5,2.7C-385.8,868.3-390.6,874.1-400,887.1z M-313.6,984.4c0-2.1,0.1-5,0.2-8.6
				c0.2-8.6,0.6-21.5,0.3-37.2c-0.4-21.3-5.6-29.6-6.4-30.8c-1.2-24.5-5.7-38.8-6.2-41.7c11.8-0.3,24.5-0.6,30.3-0.6
				c2,0,3.2,0,3.8,0.1c5.7,0.5,11.8,2.7,15,4.6c0.4,0.2,40.8,23.6,53.6,32.6c13,9.1,20.9,15.5,21.1,31.6c0.1,9.6-1.1,16.5-2.1,22
				c-0.7,4-1.3,7.4-1.3,10.8v14.1c0,1.7-0.2,3.1-2.6,3.1L-313.6,984.4L-313.6,984.4z M-399.2,887.7c9.2-12.8,13.9-18.5,20.4-19.4
				c3.7-0.6,28.8-1.4,52-2c0.5,2.5,5,16.8,6.2,41.9v0.2l0.1,0.1c0.1,0.1,6,8.1,6.3,30.3c0.3,15.7-0.1,28.7-0.3,37.2
				c-0.1,3.6-0.2,6.5-0.2,8.6h-51c-2.6,0-3.9-1-4-3.3c-0.1-1.9-1.3-9.2-12.7-24c-2.7-3.5-5.3-6.7-7.9-9.8
				c-7.6-9.3-14.2-17.3-15.8-25.4C-408.4,909.9-408,899.9-399.2,887.7z"/>
			<path class="st31" d="M-124.7,923.4c-0.8,0-1.3,0.2-1.9,0.4c-1.1,0.4-2.6,0.9-6.6,0.9s-26.7-3.8-33.5-5c-29-5-29.1-5.5-29.2-5.8
				c-0.3-0.9,2.4-3.9,6.1-6c0.5,0.1,1,0.2,1.6,0.3c-3.7,1.8-6.1,4.5-6.6,5.3c4.8,1.3,55.7,10.2,61.7,10.2c3.9,0,5.2-0.5,6.3-0.9
				c0.7-0.2,1.2-0.4,2.2-0.5c0.9,0,2.9,0.2,5,0.4c1.7,0.5,3.4,1,5,1.6C-118,924-123.2,923.3-124.7,923.4z"/>
		</g>
		<path class="st34" d="M-198.5,909.8c-1.4,1-4.3,0.8-6.6-0.5s-59.2-37-59.9-37.5c-0.8-0.4-0.9-1.7-0.4-2.4c0.2-0.3,1-0.8,1.8-1.3
			c0,0,0.1,0,0.1,0.1c2.3,1,63.2,35.8,68.9,38.7C-195.7,907.7-197.6,909.1-198.5,909.8z"/>
		<path class="st34" d="M-97.5,977.8v-7.2c0-3.3,2.7-6,6-6h4.7c0.4,4.5,0.5,8.8,0.5,12.6c0,2.3-0.2,4.6-1,6.7h-4.2
			C-94.8,983.8-97.5,981.1-97.5,977.8z"/>
		<path class="st35" d="M-89.6,957.4c-0.3-2.2-2.3-13.7-6.6-17.9s-20-10.6-21.3-10s4.5,12.6,8.1,17.7
			C-105.8,952.4-89.1,960.5-89.6,957.4z"/>
		<path class="st31" d="M-102.9,946.6c0.6,3.5,2.9,6.3,5.2,6.3s3.5-2.8,2.9-6.3s-2.9-6.3-5.2-6.3
			C-102.3,940.3-103.6,943.2-102.9,946.6z"/>
		<path class="st36" d="M-109.9,939.8c0.4,2.2,1.9,4,3.3,4s2.2-1.8,1.8-4s-1.9-4-3.3-4S-110.3,937.6-109.9,939.8z"/>
		<path class="st31" d="M-458.9,924.6v10.8c0,3.3-2.7,6-6,6h-2.9c0-4.2,0-18.7,0-21.9c0-0.3,0.1-0.7,0.1-1h2.8
			C-461.6,918.5-458.9,921.2-458.9,924.6z"/>
		<path class="st34" d="M-458.9,906c3.4-2.9,22.4-19.8,37.2-30.5c0.4,0.9,0.8,2.3,0.1,3.2c-1.1,1.5-36.5,31.1-38,32
			c-0.9,0.5-2.5,0.4-3.6-0.2C-461.9,908.8-460.4,907.3-458.9,906z"/>
		<path class="st37" d="M-305.5,917.2h15.1c1.7,0,3.1,1.4,3.1,3.2h-21.4C-308.7,918.7-307.3,917.2-305.5,917.2z"/>
		<path class="st31" d="M-290.4,923.5h-15.1c-1.7,0-3.1-1.4-3.1-3.2h21.4C-287.3,922.1-288.7,923.5-290.4,923.5z"/>
		<path class="st37" d="M-396.2,917.2h15.1c1.7,0,3.1,1.4,3.1,3.2h-21.4C-399.3,918.7-397.9,917.2-396.2,917.2z"/>
		<path class="st31" d="M-381.1,923.5h-15.1c-1.7,0-3.1-1.4-3.1-3.2h21.4C-377.9,922.1-379.3,923.5-381.1,923.5z"/>
	</g>
	<g id="AirplaneBig_1_">
    <animateTransform id='large-airplane'
      attributeName='transform'
      type='translate'
      from='0 0'
      to='-3000 50'
      begin='12s'
      dur='70s'
      repeatCount='indefinite'
    />
		<path id="AirplaneBig" d="M2020.8,238.1l3.9,0.2c0,0-0.9,5.8-0.6,7.3c0,0,2.1,0.4,1.9,0.9c-0.2,0.6-2.9,0.8-2.9,0.8
			s0.8,3.5-3.4,3.8s-7.4-0.1-7.9-0.3s-6,0.8-8.6,1s2.1,0.5,2.1,0.5s-5.8,2.1-15.1,0.7l-0.8-0.9c0,0-18.1,0.8-20.6-1.5
			c-2.6-2.2,8.2-3.7,8.2-3.7s3.1-2.4,4-2.4s28.1,1.3,30,0.9c1.9-0.4,4.9-0.5,4.9-0.5L2020.8,238.1z"/>
	</g>
	<g id="AirplaneSmall_1_">
    <animateTransform id='small-airplane'
      attributeName='transform'
      type='translate'
      from='0 0'
      to='3000 50'
      begin='5s'
      dur='90s'
      repeatCount='indefinite'
    />
		<path id="_x3C_General_x3E_" d="M-45.9,482.7l-1.9,0.1c0,0,0.4,2.9,0.3,3.5c0,0-1,0.2-1,0.5s1.4,0.4,1.4,0.4s-0.4,1.7,1.7,1.9
			c2.1,0.1,3.6,0,3.8-0.1s2.9,0.4,4.2,0.5s-1,0.3-1,0.3s2.8,1,7.4,0.3l0.4-0.4c0,0,8.8,0.4,10.1-0.7c1.3-1.1-4-1.8-4-1.8
			s-1.5-1.2-2-1.2s-13.7,0.6-14.7,0.5s-2.4-0.2-2.4-0.2L-45.9,482.7z"/>
	</g>
</g>
</svg>
